<svg width="1243px" height="700px"
 viewBox="0.00 0.00 1243.38 700.00" xmlns="http://www.w3.org/2000/svg" xmlns:xlink="http://www.w3.org/1999/xlink">
<g id="graph0" class="graph" transform="scale(1.0 1.0) rotate(0) translate(4 696)">
<title>G</title>
<polygon fill="#ffffff" stroke="transparent" points="-4,4 -4,-696 1239.3785,-696 1239.3785,4 -4,4"/>
<!-- C -->
<g id="node1" class="node">
<title>C</title>
<polygon fill="#bfbfbf" stroke="transparent" points="523.9257,-670 523.9257,-692 693.9257,-692 693.9257,-670 523.9257,-670"/>
<polyline fill="none" stroke="#0000cd" points="693.9257,-692 523.9257,-692 523.9257,-670 "/>
<text text-anchor="start" x="526.8822" y="-676.4" font-family="Times,serif" font-size="14.00" fill="#0000cd">Valid Continuous Integration</text>
<polygon fill="#bfbfbf" stroke="transparent" points="693.9257,-670 693.9257,-692 699.9257,-692 699.9257,-670 693.9257,-670"/>
<polyline fill="none" stroke="#0000cd" points="699.9257,-670 699.9257,-692 693.9257,-692 "/>
<polyline fill="none" stroke="#0000cd" points="699.9257,-692 699.9257,-670 "/>
<polygon fill="#bfbfbf" stroke="transparent" points="523.9257,-656 523.9257,-670 595.9257,-670 595.9257,-656 523.9257,-656"/>
<polyline fill="none" stroke="#0000cd" points="523.9257,-670 523.9257,-656 595.9257,-656 "/>
<polygon fill="#fff68f" stroke="transparent" points="595.9257,-648 595.9257,-670 705.9257,-670 705.9257,-648 595.9257,-648"/>
<polygon fill="none" stroke="#000000" stroke-dasharray="5,2" points="595.9257,-648 595.9257,-670 705.9257,-670 705.9257,-648 595.9257,-648"/>
<text text-anchor="start" x="631.4902" y="-654.4" font-family="Times,serif" font-size="14.00" fill="#0000cd">interne</text>
</g>
<!-- PS -->
<g id="node2" class="node">
<title>PS</title>
<polygon fill="#a2cd5a" stroke="#0000cd" points="283.4251,-396 140.8937,-396 114.4263,-360 256.9577,-360 283.4251,-396"/>
<text text-anchor="middle" x="198.9257" y="-373.8" font-family="Times,serif" font-size="14.00" fill="#0000cd">Project Scan</text>
</g>
<!-- SCR -->
<g id="node3" class="node">
<title>SCR</title>
<path fill="transparent" stroke="#0000cd" d="M285.9015,-468C285.9015,-468 191.9499,-468 191.9499,-468 185.9499,-468 179.9499,-462 179.9499,-456 179.9499,-456 179.9499,-444 179.9499,-444 179.9499,-438 185.9499,-432 191.9499,-432 191.9499,-432 285.9015,-432 285.9015,-432 291.9015,-432 297.9015,-438 297.9015,-444 297.9015,-444 297.9015,-456 297.9015,-456 297.9015,-462 291.9015,-468 285.9015,-468"/>
<text text-anchor="middle" x="238.9257" y="-445.8" font-family="Times,serif" font-size="14.00" fill="#0000cd">SonarCloud ready</text>
</g>
<!-- PS&#45;&gt;SCR -->
<g id="edge1" class="edge">
<title>PS&#45;&gt;SCR</title>
<path fill="none" stroke="#000000" d="M209.0194,-396.1686C213.4854,-404.2075 218.8332,-413.8334 223.7636,-422.7082"/>
<polygon fill="#000000" stroke="#000000" points="220.7801,-424.5449 228.6961,-431.5867 226.8992,-421.1454 220.7801,-424.5449"/>
</g>
<!-- SE -->
<g id="node4" class="node">
<title>SE</title>
<polygon fill="#a2cd5a" stroke="#0000cd" points="764.6462,-540 512.1015,-540 465.2052,-504 717.7499,-504 764.6462,-540"/>
<text text-anchor="middle" x="614.9257" y="-517.8" font-family="Times,serif" font-size="14.00" fill="#0000cd">Evaluate Project Quality</text>
</g>
<!-- SCR&#45;&gt;SE -->
<g id="edge2" class="edge">
<title>SCR&#45;&gt;SE</title>
<path fill="none" stroke="#000000" d="M297.6757,-461.25C354.5686,-472.1444 442.0696,-488.8999 510.7777,-502.0568"/>
<polygon fill="#000000" stroke="#000000" points="510.2929,-505.5275 520.7727,-503.9707 511.6095,-498.6524 510.2929,-505.5275"/>
</g>
<!-- PV -->
<g id="node5" class="node">
<title>PV</title>
<path fill="transparent" stroke="#0000cd" d="M648.1821,-612C648.1821,-612 581.6693,-612 581.6693,-612 575.6693,-612 569.6693,-606 569.6693,-600 569.6693,-600 569.6693,-588 569.6693,-588 569.6693,-582 575.6693,-576 581.6693,-576 581.6693,-576 648.1821,-576 648.1821,-576 654.1821,-576 660.1821,-582 660.1821,-588 660.1821,-588 660.1821,-600 660.1821,-600 660.1821,-606 654.1821,-612 648.1821,-612"/>
<text text-anchor="middle" x="614.9257" y="-589.8" font-family="Times,serif" font-size="14.00" fill="#0000cd">Project Valid</text>
</g>
<!-- SE&#45;&gt;PV -->
<g id="edge3" class="edge">
<title>SE&#45;&gt;PV</title>
<path fill="none" stroke="#000000" d="M614.9257,-540.1686C614.9257,-547.869 614.9257,-557.0257 614.9257,-565.5834"/>
<polygon fill="#000000" stroke="#000000" points="611.4258,-565.5867 614.9257,-575.5867 618.4258,-565.5868 611.4258,-565.5867"/>
</g>
<!-- PV&#45;&gt;C -->
<g id="edge4" class="edge">
<title>PV&#45;&gt;C</title>
<path fill="none" stroke="#000000" d="M614.9257,-612.0109C614.9257,-619.709 614.9257,-628.9371 614.9257,-637.7439"/>
<polygon fill="#000000" stroke="#000000" points="611.4258,-637.7718 614.9257,-647.7718 618.4258,-637.7718 611.4258,-637.7718"/>
</g>
<!-- AJS -->
<g id="node6" class="node">
<title>AJS</title>
<path fill="transparent" stroke="#0000cd" d="M718.7866,-324C718.7866,-324 511.0648,-324 511.0648,-324 505.0648,-324 499.0648,-318 499.0648,-312 499.0648,-312 499.0648,-300 499.0648,-300 499.0648,-294 505.0648,-288 511.0648,-288 511.0648,-288 718.7866,-288 718.7866,-288 724.7866,-288 730.7866,-294 730.7866,-300 730.7866,-300 730.7866,-312 730.7866,-312 730.7866,-318 724.7866,-324 718.7866,-324"/>
<text text-anchor="middle" x="614.9257" y="-301.8" font-family="Times,serif" font-size="14.00" fill="#0000cd">Test Coverage validated and Archived</text>
</g>
<!-- AJS&#45;&gt;SE -->
<g id="edge6" class="edge">
<title>AJS&#45;&gt;SE</title>
<path fill="none" stroke="#000000" d="M614.9257,-324.0445C614.9257,-361.6062 614.9257,-448.4459 614.9257,-493.5897"/>
<polygon fill="#000000" stroke="#000000" points="611.4258,-493.8549 614.9257,-503.8549 618.4258,-493.855 611.4258,-493.8549"/>
</g>
<!-- SD -->
<g id="node7" class="node">
<title>SD</title>
<polygon fill="#a2cd5a" stroke="#0000cd" points="555.708,-396 389.0846,-396 358.1434,-360 524.7668,-360 555.708,-396"/>
<text text-anchor="middle" x="456.9257" y="-373.8" font-family="Times,serif" font-size="14.00" fill="#0000cd">Data Archivate</text>
</g>
<!-- AJS&#45;&gt;SD -->
<g id="edge5" class="edge">
<title>AJS&#45;&gt;SD</title>
<path fill="none" stroke="#000000" d="M575.0556,-324.1686C554.018,-333.7554 528.0274,-345.5992 505.7861,-355.7345"/>
<polygon fill="#000000" stroke="#000000" points="504.1574,-352.6303 496.5091,-359.962 507.0602,-359.0001 504.1574,-352.6303"/>
</g>
<!-- ASC -->
<g id="node8" class="node">
<title>ASC</title>
<path fill="transparent" stroke="#0000cd" d="M523.0988,-468C523.0988,-468 444.7526,-468 444.7526,-468 438.7526,-468 432.7526,-462 432.7526,-456 432.7526,-456 432.7526,-444 432.7526,-444 432.7526,-438 438.7526,-432 444.7526,-432 444.7526,-432 523.0988,-432 523.0988,-432 529.0988,-432 535.0988,-438 535.0988,-444 535.0988,-444 535.0988,-456 535.0988,-456 535.0988,-462 529.0988,-468 523.0988,-468"/>
<text text-anchor="middle" x="483.9257" y="-445.8" font-family="Times,serif" font-size="14.00" fill="#0000cd">Archivees Data</text>
</g>
<!-- SD&#45;&gt;ASC -->
<g id="edge7" class="edge">
<title>SD&#45;&gt;ASC</title>
<path fill="none" stroke="#000000" d="M463.7389,-396.1686C466.6901,-404.0383 470.2115,-413.4288 473.4807,-422.1467"/>
<polygon fill="#000000" stroke="#000000" points="470.2323,-423.4524 477.0207,-431.5867 476.7866,-420.9945 470.2323,-423.4524"/>
</g>
<!-- ASC&#45;&gt;SE -->
<g id="edge8" class="edge">
<title>ASC&#45;&gt;SE</title>
<path fill="none" stroke="#000000" d="M516.9825,-468.1686C533.8934,-477.4632 554.6642,-488.8792 572.7198,-498.8029"/>
<polygon fill="#000000" stroke="#000000" points="571.43,-502.0878 581.8794,-503.8372 574.8017,-495.9532 571.43,-502.0878"/>
</g>
<!-- BM -->
<g id="node9" class="node">
<title>BM</title>
<path fill="#87ceeb" stroke="#0000cd" d="M867.2361,-324C867.2361,-324 760.6153,-324 760.6153,-324 754.6153,-324 748.6153,-318 748.6153,-312 748.6153,-312 748.6153,-300 748.6153,-300 748.6153,-294 754.6153,-288 760.6153,-288 760.6153,-288 867.2361,-288 867.2361,-288 873.2361,-288 879.2361,-294 879.2361,-300 879.2361,-300 879.2361,-312 879.2361,-312 879.2361,-318 873.2361,-324 867.2361,-324"/>
<text text-anchor="middle" x="813.9257" y="-301.8" font-family="Times,serif" font-size="14.00" fill="#0000cd">Build Maven passed</text>
</g>
<!-- SM -->
<g id="node10" class="node">
<title>SM</title>
<polygon fill="#a2cd5a" stroke="#0000cd" points="960.5608,-396 713.2205,-396 667.2906,-360 914.6309,-360 960.5608,-396"/>
<text text-anchor="middle" x="813.9257" y="-373.8" font-family="Times,serif" font-size="14.00" fill="#0000cd">Evaluate Maven Project</text>
</g>
<!-- BM&#45;&gt;SM -->
<g id="edge9" class="edge">
<title>BM&#45;&gt;SM</title>
<path fill="none" stroke="#000000" d="M813.9257,-324.1686C813.9257,-331.869 813.9257,-341.0257 813.9257,-349.5834"/>
<polygon fill="#000000" stroke="#000000" points="810.4258,-349.5867 813.9257,-359.5867 817.4258,-349.5868 810.4258,-349.5867"/>
</g>
<!-- M -->
<g id="node11" class="node">
<title>M</title>
<path fill="transparent" stroke="#0000cd" d="M783.8905,-468C783.8905,-468 717.9609,-468 717.9609,-468 711.9609,-468 705.9609,-462 705.9609,-456 705.9609,-456 705.9609,-444 705.9609,-444 705.9609,-438 711.9609,-432 717.9609,-432 717.9609,-432 783.8905,-432 783.8905,-432 789.8905,-432 795.8905,-438 795.8905,-444 795.8905,-444 795.8905,-456 795.8905,-456 795.8905,-462 789.8905,-468 783.8905,-468"/>
<text text-anchor="middle" x="750.9257" y="-445.8" font-family="Times,serif" font-size="14.00" fill="#0000cd">Maven ready</text>
</g>
<!-- SM&#45;&gt;M -->
<g id="edge10" class="edge">
<title>SM&#45;&gt;M</title>
<path fill="none" stroke="#000000" d="M798.0281,-396.1686C790.6979,-404.546 781.8597,-414.6469 773.8288,-423.8251"/>
<polygon fill="#000000" stroke="#000000" points="770.9884,-421.7562 767.0373,-431.5867 776.2564,-426.3657 770.9884,-421.7562"/>
</g>
<!-- M&#45;&gt;SE -->
<g id="edge11" class="edge">
<title>M&#45;&gt;SE</title>
<path fill="none" stroke="#000000" d="M716.6072,-468.1686C698.8898,-477.5484 677.0912,-489.0888 658.2273,-499.0756"/>
<polygon fill="#000000" stroke="#000000" points="656.4335,-496.065 649.2333,-503.8372 659.7088,-502.2515 656.4335,-496.065"/>
</g>
<!-- SJA -->
<g id="node12" class="node">
<title>SJA</title>
<polygon fill="#a2cd5a" stroke="#0000cd" points="759.2318,-252 515.82,-252 470.6196,-216 714.0314,-216 759.2318,-252"/>
<text text-anchor="middle" x="614.9257" y="-229.8" font-family="Times,serif" font-size="14.00" fill="#0000cd">testCoverage Archivate</text>
</g>
<!-- SJA&#45;&gt;AJS -->
<g id="edge12" class="edge">
<title>SJA&#45;&gt;AJS</title>
<path fill="none" stroke="#000000" d="M614.9257,-252.1686C614.9257,-259.869 614.9257,-269.0257 614.9257,-277.5834"/>
<polygon fill="#000000" stroke="#000000" points="611.4258,-277.5867 614.9257,-287.5867 618.4258,-277.5868 611.4258,-277.5867"/>
</g>
<!-- JV -->
<g id="node13" class="node">
<title>JV</title>
<path fill="transparent" stroke="#0000cd" d="M678.9847,-180C678.9847,-180 550.8667,-180 550.8667,-180 544.8667,-180 538.8667,-174 538.8667,-168 538.8667,-168 538.8667,-156 538.8667,-156 538.8667,-150 544.8667,-144 550.8667,-144 550.8667,-144 678.9847,-144 678.9847,-144 684.9847,-144 690.9847,-150 690.9847,-156 690.9847,-156 690.9847,-168 690.9847,-168 690.9847,-174 684.9847,-180 678.9847,-180"/>
<text text-anchor="middle" x="614.9257" y="-157.8" font-family="Times,serif" font-size="14.00" fill="#0000cd">Test Coverage validated</text>
</g>
<!-- JV&#45;&gt;SJA -->
<g id="edge13" class="edge">
<title>JV&#45;&gt;SJA</title>
<path fill="none" stroke="#000000" d="M614.9257,-180.1686C614.9257,-187.869 614.9257,-197.0257 614.9257,-205.5834"/>
<polygon fill="#000000" stroke="#000000" points="611.4258,-205.5867 614.9257,-215.5867 618.4258,-205.5868 611.4258,-205.5867"/>
</g>
<!-- PDOC -->
<g id="node14" class="node">
<title>PDOC</title>
<polygon fill="#a2cd5a" stroke="#0000cd" points="1235.3312,-396 1025.4872,-396 986.5202,-360 1196.3642,-360 1235.3312,-396"/>
<text text-anchor="middle" x="1110.9257" y="-373.8" font-family="Times,serif" font-size="14.00" fill="#0000cd">Project documented</text>
</g>
<!-- DOCR -->
<g id="node15" class="node">
<title>DOCR</title>
<path fill="transparent" stroke="#0000cd" d="M1052.3283,-468C1052.3283,-468 939.5231,-468 939.5231,-468 933.5231,-468 927.5231,-462 927.5231,-456 927.5231,-456 927.5231,-444 927.5231,-444 927.5231,-438 933.5231,-432 939.5231,-432 939.5231,-432 1052.3283,-432 1052.3283,-432 1058.3283,-432 1064.3283,-438 1064.3283,-444 1064.3283,-444 1064.3283,-456 1064.3283,-456 1064.3283,-462 1058.3283,-468 1052.3283,-468"/>
<text text-anchor="middle" x="995.9257" y="-445.8" font-family="Times,serif" font-size="14.00" fill="#0000cd">Documentation ready</text>
</g>
<!-- PDOC&#45;&gt;DOCR -->
<g id="edge14" class="edge">
<title>PDOC&#45;&gt;DOCR</title>
<path fill="none" stroke="#000000" d="M1081.9063,-396.1686C1067.1971,-405.3779 1049.1613,-416.6699 1033.4135,-426.5294"/>
<polygon fill="#000000" stroke="#000000" points="1031.5543,-423.564 1024.9358,-431.8372 1035.269,-429.4971 1031.5543,-423.564"/>
</g>
<!-- DOCR&#45;&gt;SE -->
<g id="edge15" class="edge">
<title>DOCR&#45;&gt;SE</title>
<path fill="none" stroke="#000000" d="M927.3705,-462.9553C869.8022,-473.8344 786.6021,-489.5572 720.5303,-502.0432"/>
<polygon fill="#000000" stroke="#000000" points="719.6723,-498.6433 710.4962,-503.9394 720.9722,-505.5216 719.6723,-498.6433"/>
</g>
<!-- SC -->
<g id="node16" class="node">
<title>SC</title>
<path fill="#87ceeb" stroke="#0000cd" d="M217.7771,-324C217.7771,-324 12.0743,-324 12.0743,-324 6.0743,-324 .0743,-318 .0743,-312 .0743,-312 .0743,-300 .0743,-300 .0743,-294 6.0743,-288 12.0743,-288 12.0743,-288 217.7771,-288 217.7771,-288 223.7771,-288 229.7771,-294 229.7771,-300 229.7771,-300 229.7771,-312 229.7771,-312 229.7771,-318 223.7771,-324 217.7771,-324"/>
<text text-anchor="middle" x="114.9257" y="-301.8" font-family="Times,serif" font-size="14.00" fill="#0000cd">Scanning the project with SonarCloud</text>
</g>
<!-- SC&#45;&gt;PS -->
<g id="edge16" class="edge">
<title>SC&#45;&gt;PS</title>
<path fill="none" stroke="#000000" d="M136.1224,-324.1686C146.3691,-332.9515 158.826,-343.6288 169.9354,-353.1511"/>
<polygon fill="#000000" stroke="#000000" points="167.8654,-355.9866 177.7357,-359.8372 172.4209,-350.6718 167.8654,-355.9866"/>
</g>
<!-- JA -->
<g id="node17" class="node">
<title>JA</title>
<path fill="#87ceeb" stroke="#0000cd" d="M846.633,-180C846.633,-180 721.2184,-180 721.2184,-180 715.2184,-180 709.2184,-174 709.2184,-168 709.2184,-168 709.2184,-156 709.2184,-156 709.2184,-150 715.2184,-144 721.2184,-144 721.2184,-144 846.633,-144 846.633,-144 852.633,-144 858.633,-150 858.633,-156 858.633,-156 858.633,-168 858.633,-168 858.633,-174 852.633,-180 846.633,-180"/>
<text text-anchor="middle" x="783.9257" y="-157.8" font-family="Times,serif" font-size="14.00" fill="#0000cd">Jacoco report Archivate</text>
</g>
<!-- JA&#45;&gt;SJA -->
<g id="edge17" class="edge">
<title>JA&#45;&gt;SJA</title>
<path fill="none" stroke="#000000" d="M741.2799,-180.1686C718.5767,-189.841 690.4806,-201.8109 666.5515,-212.0056"/>
<polygon fill="#000000" stroke="#000000" points="665.0929,-208.8225 657.2649,-215.962 667.8366,-215.2624 665.0929,-208.8225"/>
</g>
<!-- SJ -->
<g id="node18" class="node">
<title>SJ</title>
<polygon fill="#a2cd5a" stroke="#0000cd" points="782.5724,-108 552.0803,-108 509.279,-72 739.7711,-72 782.5724,-108"/>
<text text-anchor="middle" x="645.9257" y="-85.8" font-family="Times,serif" font-size="14.00" fill="#0000cd">Validate testCoverage</text>
</g>
<!-- SJ&#45;&gt;JV -->
<g id="edge18" class="edge">
<title>SJ&#45;&gt;JV</title>
<path fill="none" stroke="#000000" d="M638.1031,-108.1686C634.7148,-116.0383 630.6716,-125.4288 626.9181,-134.1467"/>
<polygon fill="#000000" stroke="#000000" points="623.5936,-133.0178 622.8536,-143.5867 630.023,-135.786 623.5936,-133.0178"/>
</g>
<!-- IA -->
<g id="node19" class="node">
<title>IA</title>
<path fill="#87ceeb" stroke="#0000cd" d="M350.2734,-324C350.2734,-324 259.578,-324 259.578,-324 253.578,-324 247.578,-318 247.578,-312 247.578,-312 247.578,-300 247.578,-300 247.578,-294 253.578,-288 259.578,-288 259.578,-288 350.2734,-288 350.2734,-288 356.2734,-288 362.2734,-294 362.2734,-300 362.2734,-300 362.2734,-312 362.2734,-312 362.2734,-318 356.2734,-324 350.2734,-324"/>
<text text-anchor="middle" x="304.9257" y="-301.8" font-family="Times,serif" font-size="14.00" fill="#0000cd">images Archivate</text>
</g>
<!-- IA&#45;&gt;SD -->
<g id="edge19" class="edge">
<title>IA&#45;&gt;SD</title>
<path fill="none" stroke="#000000" d="M343.2817,-324.1686C363.4301,-333.7126 388.3009,-345.4935 409.634,-355.5987"/>
<polygon fill="#000000" stroke="#000000" points="408.3098,-358.8442 418.8455,-359.962 411.3064,-352.518 408.3098,-358.8442"/>
</g>
<!-- RJ -->
<g id="node20" class="node">
<title>RJ</title>
<path fill="#87ceeb" stroke="#0000cd" d="M598.617,-36C598.617,-36 527.2344,-36 527.2344,-36 521.2344,-36 515.2344,-30 515.2344,-24 515.2344,-24 515.2344,-12 515.2344,-12 515.2344,-6 521.2344,0 527.2344,0 527.2344,0 598.617,0 598.617,0 604.617,0 610.617,-6 610.617,-12 610.617,-12 610.617,-24 610.617,-24 610.617,-30 604.617,-36 598.617,-36"/>
<text text-anchor="middle" x="562.9257" y="-13.8" font-family="Times,serif" font-size="14.00" fill="#0000cd">Jacoco Report</text>
</g>
<!-- RJ&#45;&gt;SJA -->
<g id="edge21" class="edge">
<title>RJ&#45;&gt;SJA</title>
<path fill="none" stroke="#000000" d="M531.9496,-36.1224C519.5688,-45.1737 506.6675,-57.3419 499.9257,-72 493.24,-86.5362 496.7878,-92.3107 499.9257,-108 506.7244,-141.9935 507.5979,-153.4812 529.9257,-180 540.1788,-192.1776 553.8915,-202.524 567.3058,-210.8013"/>
<polygon fill="#000000" stroke="#000000" points="565.6448,-213.8849 576.0383,-215.9403 569.1951,-207.852 565.6448,-213.8849"/>
</g>
<!-- RJ&#45;&gt;SJ -->
<g id="edge20" class="edge">
<title>RJ&#45;&gt;SJ</title>
<path fill="none" stroke="#000000" d="M583.8701,-36.1686C593.9948,-44.9515 606.3034,-55.6288 617.2805,-65.1511"/>
<polygon fill="#000000" stroke="#000000" points="615.1406,-67.9282 624.988,-71.8372 619.7276,-62.6405 615.1406,-67.9282"/>
</g>
<!-- TM -->
<g id="node21" class="node">
<title>TM</title>
<path fill="#87ceeb" stroke="#0000cd" d="M1008.7207,-324C1008.7207,-324 909.1307,-324 909.1307,-324 903.1307,-324 897.1307,-318 897.1307,-312 897.1307,-312 897.1307,-300 897.1307,-300 897.1307,-294 903.1307,-288 909.1307,-288 909.1307,-288 1008.7207,-288 1008.7207,-288 1014.7207,-288 1020.7207,-294 1020.7207,-300 1020.7207,-300 1020.7207,-312 1020.7207,-312 1020.7207,-318 1014.7207,-324 1008.7207,-324"/>
<text text-anchor="middle" x="958.9257" y="-301.8" font-family="Times,serif" font-size="14.00" fill="#0000cd">Test Maven passed</text>
</g>
<!-- TM&#45;&gt;SM -->
<g id="edge22" class="edge">
<title>TM&#45;&gt;SM</title>
<path fill="none" stroke="#000000" d="M922.3361,-324.1686C903.2018,-333.6698 879.6028,-345.3879 859.3135,-355.4626"/>
<polygon fill="#000000" stroke="#000000" points="857.6522,-352.3797 850.2522,-359.962 860.7654,-358.6494 857.6522,-352.3797"/>
</g>
<!-- CA -->
<g id="node22" class="node">
<title>CA</title>
<path fill="#87ceeb" stroke="#0000cd" d="M469.5472,-324C469.5472,-324 392.3042,-324 392.3042,-324 386.3042,-324 380.3042,-318 380.3042,-312 380.3042,-312 380.3042,-300 380.3042,-300 380.3042,-294 386.3042,-288 392.3042,-288 392.3042,-288 469.5472,-288 469.5472,-288 475.5472,-288 481.5472,-294 481.5472,-300 481.5472,-300 481.5472,-312 481.5472,-312 481.5472,-318 475.5472,-324 469.5472,-324"/>
<text text-anchor="middle" x="430.9257" y="-301.8" font-family="Times,serif" font-size="14.00" fill="#0000cd">code Archivate</text>
</g>
<!-- CA&#45;&gt;SD -->
<g id="edge23" class="edge">
<title>CA&#45;&gt;SD</title>
<path fill="none" stroke="#000000" d="M437.4866,-324.1686C440.3284,-332.0383 443.7194,-341.4288 446.8676,-350.1467"/>
<polygon fill="#000000" stroke="#000000" points="443.588,-351.37 450.2765,-359.5867 450.1719,-348.9924 443.588,-351.37"/>
</g>
<!-- CRM -->
<g id="node23" class="node">
<title>CRM</title>
<path fill="#87ceeb" stroke="#0000cd" d="M1188.9993,-324C1188.9993,-324 1050.8521,-324 1050.8521,-324 1044.8521,-324 1038.8521,-318 1038.8521,-312 1038.8521,-312 1038.8521,-300 1038.8521,-300 1038.8521,-294 1044.8521,-288 1050.8521,-288 1050.8521,-288 1188.9993,-288 1188.9993,-288 1194.9993,-288 1200.9993,-294 1200.9993,-300 1200.9993,-300 1200.9993,-312 1200.9993,-312 1200.9993,-318 1194.9993,-324 1188.9993,-324"/>
<text text-anchor="middle" x="1119.9257" y="-301.8" font-family="Times,serif" font-size="14.00" fill="#0000cd">Creation of the README</text>
</g>
<!-- CRM&#45;&gt;PDOC -->
<g id="edge24" class="edge">
<title>CRM&#45;&gt;PDOC</title>
<path fill="none" stroke="#000000" d="M1117.6546,-324.1686C1116.6921,-331.869 1115.5475,-341.0257 1114.4778,-349.5834"/>
<polygon fill="#000000" stroke="#000000" points="1110.9948,-349.2298 1113.2274,-359.5867 1117.9408,-350.0981 1110.9948,-349.2298"/>
</g>
</g>
</svg>
