<svg width="508px" height="196px"
 viewBox="0.00 0.00 508.38 196.00" xmlns="http://www.w3.org/2000/svg" xmlns:xlink="http://www.w3.org/1999/xlink">
<g id="graph0" class="graph" transform="scale(1.0 1.0) rotate(0) translate(4 192)">
<title>G</title>
<polygon fill="#ffffff" stroke="transparent" points="-4,4 -4,-192 504.3829,-192 504.3829,4 -4,4"/>
<!-- A -->
<g id="node1" class="node">
<title>A</title>
<path fill="#87ceeb" stroke="#000000" d="M219.1719,-36C219.1719,-36 146.9558,-36 146.9558,-36 140.9558,-36 134.9558,-30 134.9558,-24 134.9558,-24 134.9558,-12 134.9558,-12 134.9558,-6 140.9558,0 146.9558,0 146.9558,0 219.1719,0 219.1719,0 225.1719,0 231.1719,-6 231.1719,-12 231.1719,-12 231.1719,-24 231.1719,-24 231.1719,-30 225.1719,-36 219.1719,-36"/>
<text text-anchor="middle" x="183.0638" y="-13.8" font-family="Times,serif" font-size="14.00" fill="#000000">JUnit test logs</text>
</g>
<!-- S -->
<g id="node2" class="node">
<title>S</title>
<polygon fill="#a2cd5a" stroke="#000000" points="386.1327,-108 144.8078,-108 99.9949,-72 341.3198,-72 386.1327,-108"/>
<text text-anchor="middle" x="243.0638" y="-85.8" font-family="Times,serif" font-size="14.00" fill="#000000">Software is functionnal</text>
</g>
<!-- A&#45;&gt;S -->
<g id="edge1" class="edge">
<title>A&#45;&gt;S</title>
<path fill="none" stroke="#000000" d="M198.2043,-36.1686C205.1855,-44.546 213.6029,-54.6469 221.2514,-63.8251"/>
<polygon fill="#000000" stroke="#000000" points="218.6288,-66.1452 227.7194,-71.5867 224.0063,-61.6638 218.6288,-66.1452"/>
</g>
<!-- C -->
<g id="node3" class="node">
<title>C</title>
<polygon fill="#bfbfbf" stroke="transparent" points="155.0638,-166 155.0638,-188 319.0638,-188 319.0638,-166 155.0638,-166"/>
<polyline fill="none" stroke="#4169e1" points="319.0638,-188 155.0638,-188 155.0638,-166 "/>
<text text-anchor="start" x="157.7657" y="-172.4" font-family="Times,serif" font-size="14.00" fill="#000000">Software is ready for launch</text>
<polygon fill="#bfbfbf" stroke="transparent" points="319.0638,-166 319.0638,-188 325.0638,-188 325.0638,-166 319.0638,-166"/>
<polyline fill="none" stroke="#4169e1" points="325.0638,-166 325.0638,-188 319.0638,-188 "/>
<polyline fill="none" stroke="#4169e1" points="325.0638,-188 325.0638,-166 "/>
<polygon fill="#bfbfbf" stroke="transparent" points="155.0638,-152 155.0638,-166 221.0638,-166 221.0638,-152 155.0638,-152"/>
<polyline fill="none" stroke="#4169e1" points="155.0638,-166 155.0638,-152 221.0638,-152 "/>
<polygon fill="#fff68f" stroke="transparent" points="221.0638,-144 221.0638,-166 331.0638,-166 331.0638,-144 221.0638,-144"/>
<polygon fill="none" stroke="#000000" stroke-dasharray="5,2" points="221.0638,-144 221.0638,-166 331.0638,-166 331.0638,-144 221.0638,-144"/>
<text text-anchor="start" x="254.298" y="-150.4" font-family="Times,serif" font-size="14.00" fill="#000000">Internal</text>
</g>
<!-- S&#45;&gt;C -->
<g id="edge2" class="edge">
<title>S&#45;&gt;C</title>
<path fill="none" stroke="#000000" d="M243.0638,-108.0109C243.0638,-115.709 243.0638,-124.9371 243.0638,-133.7439"/>
<polygon fill="#000000" stroke="#000000" points="239.5639,-133.7718 243.0638,-143.7718 246.5639,-133.7718 239.5639,-133.7718"/>
</g>
<!-- R -->
<g id="node4" class="node">
<title>R</title>
<ellipse fill="#ffdab9" stroke="#000000" cx="452.0638" cy="-90" rx="48.1388" ry="18"/>
<text text-anchor="middle" x="452.0638" y="-85.8" font-family="Times,serif" font-size="14.00" fill="#000000">ISO 1234</text>
</g>
<!-- S&#45;&gt;R -->
<!-- R&#45;&gt;S -->
<g id="edge4" class="edge">
<title>R&#45;&gt;S</title>
<path fill="none" stroke="#000000" d="M409.4449,-81.2339C392.0882,-78.5783 374.7316,-77.04 357.3749,-76.619"/>
<polygon fill="#000000" stroke="#000000" points="357.1956,-73.1168 347.1556,-76.5002 357.1142,-80.1163 357.1956,-73.1168"/>
</g>
<!-- B -->
<g id="node5" class="node">
<title>B</title>
<path fill="#87ceeb" stroke="#000000" d="M344.8341,-36C344.8341,-36 261.2936,-36 261.2936,-36 255.2936,-36 249.2936,-30 249.2936,-24 249.2936,-24 249.2936,-12 249.2936,-12 249.2936,-6 255.2936,0 261.2936,0 261.2936,0 344.8341,0 344.8341,0 350.8341,0 356.8341,-6 356.8341,-12 356.8341,-12 356.8341,-24 356.8341,-24 356.8341,-30 350.8341,-36 344.8341,-36"/>
<text text-anchor="middle" x="303.0638" y="-13.8" font-family="Times,serif" font-size="14.00" fill="#000000">Jenkins test logs</text>
</g>
<!-- B&#45;&gt;S -->
<g id="edge5" class="edge">
<title>B&#45;&gt;S</title>
<path fill="none" stroke="#000000" d="M287.9233,-36.1686C280.9421,-44.546 272.5248,-54.6469 264.8763,-63.8251"/>
<polygon fill="#000000" stroke="#000000" points="262.1213,-61.6638 258.4082,-71.5867 267.4989,-66.1452 262.1213,-61.6638"/>
</g>
<!-- D -->
<g id="node6" class="node">
<title>D</title>
<ellipse fill="#c1ffc1" stroke="#000000" stroke-dasharray="5,2" cx="41.0638" cy="-90" rx="41.1277" ry="18"/>
<text text-anchor="middle" x="41.0638" y="-85.8" font-family="Times,serif" font-size="14.00" fill="#000000">Internal</text>
</g>
<!-- D&#45;&gt;S -->
<g id="edge6" class="edge">
<title>D&#45;&gt;S</title>
<path fill="none" stroke="#000000" d="M82.4896,-90C92.3434,-90 102.1971,-90 112.0509,-90"/>
<polygon fill="#000000" stroke="#000000" points="112.3196,-93.5001 122.3195,-90 112.3195,-86.5001 112.3196,-93.5001"/>
</g>
</g>
</svg>
