<svg width="963px" height="628px"
 viewBox="0.00 0.00 963.07 628.00" xmlns="http://www.w3.org/2000/svg" xmlns:xlink="http://www.w3.org/1999/xlink">
<g id="graph0" class="graph" transform="scale(1.0 1.0) rotate(0) translate(4 624)">
<title>G</title>
<polygon fill="#ffffff" stroke="transparent" points="-4,4 -4,-624 959.0744,-624 959.0744,4 -4,4"/>
<!-- S3 -->
<g id="node1" class="node">
<title>S3</title>
<polygon fill="#a2cd5a" stroke="#cd0000" points="299.5849,-252 47.0355,-252 .1383,-216 252.6876,-216 299.5849,-252"/>
<text text-anchor="middle" x="149.8616" y="-229.8" font-family="Times,serif" font-size="14.00" fill="#cd0000">Assess risk management</text>
</g>
<!-- C3 -->
<g id="node2" class="node">
<title>C3</title>
<path fill="transparent" stroke="#cd0000" d="M531.4108,-324C531.4108,-324 368.3124,-324 368.3124,-324 362.3124,-324 356.3124,-318 356.3124,-312 356.3124,-312 356.3124,-300 356.3124,-300 356.3124,-294 362.3124,-288 368.3124,-288 368.3124,-288 531.4108,-288 531.4108,-288 537.4108,-288 543.4108,-294 543.4108,-300 543.4108,-300 543.4108,-312 543.4108,-312 543.4108,-318 537.4108,-324 531.4108,-324"/>
<text text-anchor="middle" x="449.8616" y="-301.8" font-family="Times,serif" font-size="14.00" fill="#cd0000">Safety specifications validated</text>
</g>
<!-- S3&#45;&gt;C3 -->
<g id="edge1" class="edge">
<title>S3&#45;&gt;C3</title>
<path fill="none" stroke="#000000" d="M225.177,-252.0757C267.6959,-262.2802 320.9636,-275.0645 364.9606,-285.6238"/>
<polygon fill="#000000" stroke="#000000" points="364.2347,-289.0489 374.7754,-287.9793 365.8684,-282.2422 364.2347,-289.0489"/>
</g>
<!-- R3 -->
<g id="node8" class="node">
<title>R3</title>
<ellipse fill="#ffdab9" stroke="#cd0000" cx="430.8616" cy="-234" rx="113.426" ry="18"/>
<text text-anchor="middle" x="430.8616" y="-229.8" font-family="Times,serif" font-size="14.00" fill="#cd0000">Credentials for ISO 14971</text>
</g>
<!-- S3&#45;&gt;R3 -->
<!-- S -->
<g id="node3" class="node">
<title>S</title>
<polygon fill="#a2cd5a" stroke="#cd0000" points="711.302,-540 476.0975,-540 432.4211,-504 667.6256,-504 711.302,-540"/>
<text text-anchor="middle" x="571.8616" y="-517.8" font-family="Times,serif" font-size="14.00" fill="#cd0000">Assess software safety</text>
</g>
<!-- C3&#45;&gt;S -->
<g id="edge3" class="edge">
<title>C3&#45;&gt;S</title>
<path fill="none" stroke="#000000" d="M460.0534,-324.0445C481.493,-362.0033 531.3572,-450.2873 556.6157,-495.0072"/>
<polygon fill="#000000" stroke="#000000" points="553.6475,-496.8691 561.613,-503.8549 559.7425,-493.4265 553.6475,-496.8691"/>
</g>
<!-- S2 -->
<g id="node6" class="node">
<title>S2</title>
<polygon fill="#a2cd5a" stroke="#cd0000" points="850.2314,-396 638.7608,-396 599.4918,-360 810.9623,-360 850.2314,-396"/>
<text text-anchor="middle" x="724.8616" y="-373.8" font-family="Times,serif" font-size="14.00" fill="#cd0000">Review architecture</text>
</g>
<!-- C3&#45;&gt;S2 -->
<g id="edge4" class="edge">
<title>C3&#45;&gt;S2</title>
<path fill="none" stroke="#000000" d="M518.9007,-324.0757C557.5573,-334.1967 605.9062,-346.8553 646.0433,-357.3639"/>
<polygon fill="#000000" stroke="#000000" points="645.2336,-360.7698 655.794,-359.9169 647.0066,-353.9981 645.2336,-360.7698"/>
</g>
<!-- C -->
<g id="node4" class="node">
<title>C</title>
<polygon fill="#bfbfbf" stroke="transparent" points="491.8616,-598 491.8616,-620 639.8616,-620 639.8616,-598 491.8616,-598"/>
<polyline fill="none" stroke="#cd0000" points="639.8616,-620 491.8616,-620 491.8616,-598 "/>
<text text-anchor="start" x="494.7262" y="-604.4" font-family="Times,serif" font-size="14.00" fill="#cd0000">Software safety validated</text>
<polygon fill="#bfbfbf" stroke="transparent" points="639.8616,-598 639.8616,-620 645.8616,-620 645.8616,-598 639.8616,-598"/>
<polyline fill="none" stroke="#cd0000" points="645.8616,-598 645.8616,-620 639.8616,-620 "/>
<polyline fill="none" stroke="#cd0000" points="645.8616,-620 645.8616,-598 "/>
<polygon fill="#bfbfbf" stroke="transparent" points="491.8616,-584 491.8616,-598 549.8616,-598 549.8616,-584 491.8616,-584"/>
<polyline fill="none" stroke="#cd0000" points="491.8616,-598 491.8616,-584 549.8616,-584 "/>
<polygon fill="#fff68f" stroke="transparent" points="549.8616,-576 549.8616,-598 651.8616,-598 651.8616,-576 549.8616,-576"/>
<polygon fill="none" stroke="#000000" stroke-dasharray="5,2" points="549.8616,-576 549.8616,-598 651.8616,-598 651.8616,-576 549.8616,-576"/>
<text text-anchor="start" x="579.0958" y="-582.4" font-family="Times,serif" font-size="14.00" fill="#cd0000">Internal</text>
</g>
<!-- S&#45;&gt;C -->
<g id="edge5" class="edge">
<title>S&#45;&gt;C</title>
<path fill="none" stroke="#000000" d="M571.8616,-540.0109C571.8616,-547.709 571.8616,-556.9371 571.8616,-565.7439"/>
<polygon fill="#000000" stroke="#000000" points="568.3617,-565.7718 571.8616,-575.7718 575.3617,-565.7718 568.3617,-565.7718"/>
</g>
<!-- R -->
<g id="node5" class="node">
<title>R</title>
<ellipse fill="#ffdab9" stroke="#cd0000" cx="841.8616" cy="-522" rx="113.426" ry="18"/>
<text text-anchor="middle" x="841.8616" y="-517.8" font-family="Times,serif" font-size="14.00" fill="#cd0000">Credentials for IEC 62304</text>
</g>
<!-- S&#45;&gt;R -->
<!-- R&#45;&gt;S -->
<g id="edge7" class="edge">
<title>R&#45;&gt;S</title>
<path fill="none" stroke="#000000" d="M755.7212,-510.2683C731.9344,-508.5465 708.1475,-508.0821 684.3606,-508.875"/>
<polygon fill="#000000" stroke="#000000" points="684.0149,-505.3861 674.1663,-509.2918 684.3009,-512.3803 684.0149,-505.3861"/>
</g>
<!-- C2 -->
<g id="node7" class="node">
<title>C2</title>
<path fill="transparent" stroke="#cd0000" d="M755.1354,-468C755.1354,-468 638.5878,-468 638.5878,-468 632.5878,-468 626.5878,-462 626.5878,-456 626.5878,-456 626.5878,-444 626.5878,-444 626.5878,-438 632.5878,-432 638.5878,-432 638.5878,-432 755.1354,-432 755.1354,-432 761.1354,-432 767.1354,-438 767.1354,-444 767.1354,-444 767.1354,-456 767.1354,-456 767.1354,-462 761.1354,-468 755.1354,-468"/>
<text text-anchor="middle" x="696.8616" y="-445.8" font-family="Times,serif" font-size="14.00" fill="#cd0000">Architecture validated</text>
</g>
<!-- S2&#45;&gt;C2 -->
<g id="edge8" class="edge">
<title>S2&#45;&gt;C2</title>
<path fill="none" stroke="#000000" d="M717.796,-396.1686C714.7356,-404.0383 711.0837,-413.4288 707.6934,-422.1467"/>
<polygon fill="#000000" stroke="#000000" points="704.3848,-420.9981 704.0223,-431.5867 710.9088,-423.5353 704.3848,-420.9981"/>
</g>
<!-- C2&#45;&gt;S -->
<g id="edge9" class="edge">
<title>C2&#45;&gt;S</title>
<path fill="none" stroke="#000000" d="M665.3188,-468.1686C649.1825,-477.4632 629.363,-488.8792 612.1343,-498.8029"/>
<polygon fill="#000000" stroke="#000000" points="610.3126,-495.813 603.3943,-503.8372 613.8065,-501.8788 610.3126,-495.813"/>
</g>
<!-- R3&#45;&gt;S3 -->
<g id="edge10" class="edge">
<title>R3&#45;&gt;S3</title>
<path fill="none" stroke="#000000" d="M343.9066,-222.4607C319.2154,-220.6524 294.5241,-220.0949 269.8329,-220.7882"/>
<polygon fill="#000000" stroke="#000000" points="269.4984,-217.2977 259.6272,-221.146 269.7437,-224.2934 269.4984,-217.2977"/>
</g>
<!-- S4 -->
<g id="node9" class="node">
<title>S4</title>
<polygon fill="#a2cd5a" stroke="#0000cd" points="478.1098,-108 278.6518,-108 241.6134,-72 441.0714,-72 478.1098,-108"/>
<text text-anchor="middle" x="359.8616" y="-85.8" font-family="Times,serif" font-size="14.00" fill="#0000cd">Verify consistency</text>
</g>
<!-- C4 -->
<g id="node10" class="node">
<title>C4</title>
<path fill="transparent" stroke="#0000cd" d="M405.7922,-180C405.7922,-180 313.931,-180 313.931,-180 307.931,-180 301.931,-174 301.931,-168 301.931,-168 301.931,-156 301.931,-156 301.931,-150 307.931,-144 313.931,-144 313.931,-144 405.7922,-144 405.7922,-144 411.7922,-144 417.7922,-150 417.7922,-156 417.7922,-156 417.7922,-168 417.7922,-168 417.7922,-174 411.7922,-180 405.7922,-180"/>
<text text-anchor="middle" x="359.8616" y="-157.8" font-family="Times,serif" font-size="14.00" fill="#0000cd">Risks consistency</text>
</g>
<!-- S4&#45;&gt;C4 -->
<g id="edge11" class="edge">
<title>S4&#45;&gt;C4</title>
<path fill="none" stroke="#000000" d="M359.8616,-108.1686C359.8616,-115.869 359.8616,-125.0257 359.8616,-133.5834"/>
<polygon fill="#000000" stroke="#000000" points="356.3617,-133.5867 359.8616,-143.5867 363.3617,-133.5868 356.3617,-133.5867"/>
</g>
<!-- C4&#45;&gt;S3 -->
<g id="edge12" class="edge">
<title>C4&#45;&gt;S3</title>
<path fill="none" stroke="#000000" d="M307.1408,-180.0757C278.3077,-189.9613 242.4135,-202.2679 212.1985,-212.6274"/>
<polygon fill="#000000" stroke="#000000" points="210.9284,-209.3627 202.6041,-215.9169 213.1987,-215.9844 210.9284,-209.3627"/>
</g>
<!-- D -->
<g id="node11" class="node">
<title>D</title>
<ellipse fill="#c1ffc1" stroke="#cd0000" stroke-dasharray="5,2" cx="320.8616" cy="-522" rx="93.1933" ry="18"/>
<text text-anchor="middle" x="320.8616" y="-517.8" font-family="Times,serif" font-size="14.00" fill="#cd0000">Internal accreditation</text>
</g>
<!-- D&#45;&gt;S -->
<g id="edge13" class="edge">
<title>D&#45;&gt;S</title>
<path fill="none" stroke="#000000" d="M414.4963,-522C424.3053,-522 434.1142,-522 443.9231,-522"/>
<polygon fill="#000000" stroke="#000000" points="444.145,-525.5001 454.145,-522 444.145,-518.5001 444.145,-525.5001"/>
</g>
<!-- F -->
<g id="node12" class="node">
<title>F</title>
<path fill="#87ceeb" stroke="#cd0000" d="M684.8196,-324C684.8196,-324 622.9036,-324 622.9036,-324 616.9036,-324 610.9036,-318 610.9036,-312 610.9036,-312 610.9036,-300 610.9036,-300 610.9036,-294 616.9036,-288 622.9036,-288 622.9036,-288 684.8196,-288 684.8196,-288 690.8196,-288 696.8196,-294 696.8196,-300 696.8196,-300 696.8196,-312 696.8196,-312 696.8196,-318 690.8196,-324 684.8196,-324"/>
<text text-anchor="middle" x="653.8616" y="-301.8" font-family="Times,serif" font-size="14.00" fill="#cd0000">Architecture</text>
</g>
<!-- F&#45;&gt;S2 -->
<g id="edge14" class="edge">
<title>F&#45;&gt;S2</title>
<path fill="none" stroke="#000000" d="M671.7779,-324.1686C680.2058,-332.7152 690.4026,-343.0557 699.5976,-352.3802"/>
<polygon fill="#000000" stroke="#000000" points="697.1904,-354.9239 706.704,-359.5867 702.1747,-350.0088 697.1904,-354.9239"/>
</g>
<!-- G -->
<g id="node13" class="node">
<title>G</title>
<path fill="#87ceeb" stroke="#cd0000" d="M272.1972,-180C272.1972,-180 165.5259,-180 165.5259,-180 159.5259,-180 153.5259,-174 153.5259,-168 153.5259,-168 153.5259,-156 153.5259,-156 153.5259,-150 159.5259,-144 165.5259,-144 165.5259,-144 272.1972,-144 272.1972,-144 278.1972,-144 284.1972,-150 284.1972,-156 284.1972,-156 284.1972,-168 284.1972,-168 284.1972,-174 278.1972,-180 272.1972,-180"/>
<text text-anchor="middle" x="218.8616" y="-157.8" font-family="Times,serif" font-size="14.00" fill="#cd0000">Risk mitigation plan</text>
</g>
<!-- G&#45;&gt;S3 -->
<g id="edge15" class="edge">
<title>G&#45;&gt;S3</title>
<path fill="none" stroke="#000000" d="M201.45,-180.1686C193.3406,-188.6306 183.5459,-198.8511 174.6796,-208.1029"/>
<polygon fill="#000000" stroke="#000000" points="171.8997,-205.9451 167.5076,-215.5867 176.9537,-210.7885 171.8997,-205.9451"/>
</g>
<!-- H -->
<g id="node14" class="node">
<title>H</title>
<path fill="#87ceeb" stroke="#0000cd" d="M685.5247,-36C685.5247,-36 558.1984,-36 558.1984,-36 552.1984,-36 546.1984,-30 546.1984,-24 546.1984,-24 546.1984,-12 546.1984,-12 546.1984,-6 552.1984,0 558.1984,0 558.1984,0 685.5247,0 685.5247,0 691.5247,0 697.5247,-6 697.5247,-12 697.5247,-12 697.5247,-24 697.5247,-24 697.5247,-30 691.5247,-36 685.5247,-36"/>
<text text-anchor="middle" x="621.8616" y="-13.8" font-family="Times,serif" font-size="14.00" fill="#0000cd">Technical specifications</text>
</g>
<!-- H&#45;&gt;S2 -->
<g id="edge19" class="edge">
<title>H&#45;&gt;S2</title>
<path fill="none" stroke="#000000" d="M660.5594,-36.1617C702.9095,-59.0316 764.8616,-102.6327 764.8616,-162 764.8616,-162 764.8616,-162 764.8616,-234 764.8616,-275.7781 749.0376,-321.9684 737.2951,-350.4933"/>
<polygon fill="#000000" stroke="#000000" points="734.0262,-349.2371 733.3445,-359.81 740.4708,-351.9699 734.0262,-349.2371"/>
</g>
<!-- H&#45;&gt;S4 -->
<g id="edge18" class="edge">
<title>H&#45;&gt;S4</title>
<path fill="none" stroke="#000000" d="M556.0861,-36.0757C519.4905,-46.1325 473.7776,-58.6948 435.6824,-69.1637"/>
<polygon fill="#000000" stroke="#000000" points="434.3792,-65.892 425.6641,-71.9169 436.2341,-72.6418 434.3792,-65.892"/>
</g>
<!-- C5 -->
<g id="node15" class="node">
<title>C5</title>
<path fill="transparent" stroke="#0000cd" d="M725.115,-252C725.115,-252 620.6081,-252 620.6081,-252 614.6081,-252 608.6081,-246 608.6081,-240 608.6081,-240 608.6081,-228 608.6081,-228 608.6081,-222 614.6081,-216 620.6081,-216 620.6081,-216 725.115,-216 725.115,-216 731.115,-216 737.115,-222 737.115,-228 737.115,-228 737.115,-240 737.115,-240 737.115,-246 731.115,-252 725.115,-252"/>
<text text-anchor="middle" x="672.8616" y="-229.8" font-family="Times,serif" font-size="14.00" fill="#0000cd">Feasible hard points</text>
</g>
<!-- H&#45;&gt;C5 -->
<g id="edge16" class="edge">
<title>H&#45;&gt;C5</title>
<path fill="none" stroke="#000000" stroke-dasharray="5,2" d="M635.9548,-36.4725C642.825,-46.4589 650.5231,-59.3174 654.8616,-72 670.2497,-116.9838 673.1926,-172.6977 673.3977,-205.683"/>
<polygon fill="#000000" stroke="#000000" points="669.8973,-205.9424 673.3764,-215.9497 676.8973,-205.9571 669.8973,-205.9424"/>
</g>
<!-- C1 -->
<g id="node16" class="node">
<title>C1</title>
<path fill="transparent" stroke="#0000cd" d="M633.9858,-108C633.9858,-108 507.7373,-108 507.7373,-108 501.7373,-108 495.7373,-102 495.7373,-96 495.7373,-96 495.7373,-84 495.7373,-84 495.7373,-78 501.7373,-72 507.7373,-72 507.7373,-72 633.9858,-72 633.9858,-72 639.9858,-72 645.9858,-78 645.9858,-84 645.9858,-84 645.9858,-96 645.9858,-96 645.9858,-102 639.9858,-108 633.9858,-108"/>
<text text-anchor="middle" x="570.8616" y="-85.8" font-family="Times,serif" font-size="14.00" fill="#0000cd">Specifications validated</text>
</g>
<!-- H&#45;&gt;C1 -->
<g id="edge17" class="edge">
<title>H&#45;&gt;C1</title>
<path fill="none" stroke="#000000" stroke-dasharray="5,2" d="M608.9921,-36.1686C603.178,-44.3768 596.192,-54.2394 589.797,-63.2677"/>
<polygon fill="#000000" stroke="#000000" points="586.8284,-61.4034 583.9043,-71.5867 592.5406,-65.4495 586.8284,-61.4034"/>
</g>
<!-- C5&#45;&gt;S2 -->
<g id="edge20" class="edge">
<title>C5&#45;&gt;S2</title>
<path fill="none" stroke="#000000" d="M686.1213,-252.1671C692.93,-262.2744 700.8297,-275.3394 705.8616,-288 713.7997,-307.9729 718.6427,-331.8202 721.4508,-349.9478"/>
<polygon fill="#000000" stroke="#000000" points="717.9922,-350.4862 722.8771,-359.8877 724.9212,-349.4919 717.9922,-350.4862"/>
</g>
<!-- C1&#45;&gt;S -->
<g id="edge21" class="edge">
<title>C1&#45;&gt;S</title>
<path fill="none" stroke="#000000" d="M571.0688,-108.1851C571.3617,-135.5011 571.8616,-188.7489 571.8616,-234 571.8616,-234 571.8616,-234 571.8616,-378 571.8616,-418.124 571.8616,-464.5369 571.8616,-493.5823"/>
<polygon fill="#000000" stroke="#000000" points="568.3617,-493.8146 571.8616,-503.8146 575.3617,-493.8147 568.3617,-493.8146"/>
</g>
<!-- I -->
<g id="node17" class="node">
<title>I</title>
<path fill="#87ceeb" stroke="#0000cd" d="M471.2162,-36C471.2162,-36 338.507,-36 338.507,-36 332.507,-36 326.507,-30 326.507,-24 326.507,-24 326.507,-12 326.507,-12 326.507,-6 332.507,0 338.507,0 338.507,0 471.2162,0 471.2162,0 477.2162,0 483.2162,-6 483.2162,-12 483.2162,-12 483.2162,-24 483.2162,-24 483.2162,-30 477.2162,-36 471.2162,-36"/>
<text text-anchor="middle" x="404.8616" y="-13.8" font-family="Times,serif" font-size="14.00" fill="#0000cd">Functional specifications</text>
</g>
<!-- I&#45;&gt;S4 -->
<g id="edge23" class="edge">
<title>I&#45;&gt;S4</title>
<path fill="none" stroke="#000000" d="M393.5062,-36.1686C388.429,-44.2921 382.3389,-54.0363 376.7439,-62.9882"/>
<polygon fill="#000000" stroke="#000000" points="373.7019,-61.2517 371.3699,-71.5867 379.6379,-64.9617 373.7019,-61.2517"/>
</g>
<!-- I&#45;&gt;C1 -->
<g id="edge22" class="edge">
<title>I&#45;&gt;C1</title>
<path fill="none" stroke="#000000" stroke-dasharray="5,2" d="M446.7504,-36.1686C468.9519,-45.7982 496.4037,-57.705 519.8399,-67.8701"/>
<polygon fill="#000000" stroke="#000000" points="518.707,-71.1938 529.274,-71.962 521.4925,-64.7718 518.707,-71.1938"/>
</g>
<!-- J -->
<g id="node18" class="node">
<title>J</title>
<path fill="#87ceeb" stroke="#0000cd" d="M253.2248,-36C253.2248,-36 176.4983,-36 176.4983,-36 170.4983,-36 164.4983,-30 164.4983,-24 164.4983,-24 164.4983,-12 164.4983,-12 164.4983,-6 170.4983,0 176.4983,0 176.4983,0 253.2248,0 253.2248,0 259.2248,0 265.2248,-6 265.2248,-12 265.2248,-12 265.2248,-24 265.2248,-24 265.2248,-30 259.2248,-36 253.2248,-36"/>
<text text-anchor="middle" x="214.8616" y="-13.8" font-family="Times,serif" font-size="14.00" fill="#0000cd">Identified risks</text>
</g>
<!-- J&#45;&gt;S3 -->
<g id="edge24" class="edge">
<title>J&#45;&gt;S3</title>
<path fill="none" stroke="#000000" d="M200.6849,-36.3373C183.5459,-59.7787 155.6582,-102.3347 144.8616,-144 139.6113,-164.2615 141.212,-187.9182 143.938,-205.8917"/>
<polygon fill="#000000" stroke="#000000" points="140.4886,-206.4851 145.6299,-215.7489 147.3877,-205.3009 140.4886,-206.4851"/>
</g>
<!-- J&#45;&gt;S4 -->
<g id="edge25" class="edge">
<title>J&#45;&gt;S4</title>
<path fill="none" stroke="#000000" d="M251.4512,-36.1686C270.5855,-45.6698 294.1845,-57.3879 314.4738,-67.4626"/>
<polygon fill="#000000" stroke="#000000" points="313.0219,-70.6494 323.5351,-71.962 316.1351,-64.3797 313.0219,-70.6494"/>
</g>
</g>
</svg>
