<svg width="781px" height="700px"
 viewBox="0.00 0.00 780.82 700.00" xmlns="http://www.w3.org/2000/svg" xmlns:xlink="http://www.w3.org/1999/xlink">
<g id="graph0" class="graph" transform="scale(1.0 1.0) rotate(0) translate(4 696)">
<title>G</title>
<polygon fill="#ffffff" stroke="transparent" points="-4,4 -4,-696 776.8209,-696 776.8209,4 -4,4"/>
<!-- C -->
<g id="node1" class="node">
<title>C</title>
<polygon fill="#bfbfbf" stroke="transparent" points="276.1736,-670 276.1736,-692 446.1736,-692 446.1736,-670 276.1736,-670"/>
<polyline fill="none" stroke="#0000cd" points="446.1736,-692 276.1736,-692 276.1736,-670 "/>
<text text-anchor="start" x="279.1301" y="-676.4" font-family="Times,serif" font-size="14.00" fill="#0000cd">Valid Continuous Integration</text>
<polygon fill="#bfbfbf" stroke="transparent" points="446.1736,-670 446.1736,-692 452.1736,-692 452.1736,-670 446.1736,-670"/>
<polyline fill="none" stroke="#0000cd" points="452.1736,-670 452.1736,-692 446.1736,-692 "/>
<polyline fill="none" stroke="#0000cd" points="452.1736,-692 452.1736,-670 "/>
<polygon fill="#bfbfbf" stroke="transparent" points="276.1736,-656 276.1736,-670 348.1736,-670 348.1736,-656 276.1736,-656"/>
<polyline fill="none" stroke="#0000cd" points="276.1736,-670 276.1736,-656 348.1736,-656 "/>
<polygon fill="#fff68f" stroke="transparent" points="348.1736,-648 348.1736,-670 458.1736,-670 458.1736,-648 348.1736,-648"/>
<polygon fill="none" stroke="#000000" stroke-dasharray="5,2" points="348.1736,-648 348.1736,-670 458.1736,-670 458.1736,-648 348.1736,-648"/>
<text text-anchor="start" x="383.7381" y="-654.4" font-family="Times,serif" font-size="14.00" fill="#0000cd">interne</text>
</g>
<!-- PV -->
<g id="node2" class="node">
<title>PV</title>
<path fill="transparent" stroke="#0000cd" d="M400.43,-612C400.43,-612 333.9172,-612 333.9172,-612 327.9172,-612 321.9172,-606 321.9172,-600 321.9172,-600 321.9172,-588 321.9172,-588 321.9172,-582 327.9172,-576 333.9172,-576 333.9172,-576 400.43,-576 400.43,-576 406.43,-576 412.43,-582 412.43,-588 412.43,-588 412.43,-600 412.43,-600 412.43,-606 406.43,-612 400.43,-612"/>
<text text-anchor="middle" x="367.1736" y="-589.8" font-family="Times,serif" font-size="14.00" fill="#0000cd">Project Valid</text>
</g>
<!-- PV&#45;&gt;C -->
<g id="edge1" class="edge">
<title>PV&#45;&gt;C</title>
<path fill="none" stroke="#000000" d="M367.1736,-612.0109C367.1736,-619.709 367.1736,-628.9371 367.1736,-637.7439"/>
<polygon fill="#000000" stroke="#000000" points="363.6737,-637.7718 367.1736,-647.7718 370.6737,-637.7718 363.6737,-637.7718"/>
</g>
<!-- AJS -->
<g id="node3" class="node">
<title>AJS</title>
<path fill="transparent" stroke="#0000cd" d="M471.0345,-324C471.0345,-324 263.3127,-324 263.3127,-324 257.3127,-324 251.3127,-318 251.3127,-312 251.3127,-312 251.3127,-300 251.3127,-300 251.3127,-294 257.3127,-288 263.3127,-288 263.3127,-288 471.0345,-288 471.0345,-288 477.0345,-288 483.0345,-294 483.0345,-300 483.0345,-300 483.0345,-312 483.0345,-312 483.0345,-318 477.0345,-324 471.0345,-324"/>
<text text-anchor="middle" x="367.1736" y="-301.8" font-family="Times,serif" font-size="14.00" fill="#0000cd">Test Coverage validated and Archived</text>
</g>
<!-- SD -->
<g id="node4" class="node">
<title>SD</title>
<polygon fill="#a2cd5a" stroke="#0000cd" points="310.9559,-396 144.3325,-396 113.3913,-360 280.0147,-360 310.9559,-396"/>
<text text-anchor="middle" x="212.1736" y="-373.8" font-family="Times,serif" font-size="14.00" fill="#0000cd">Data Archivate</text>
</g>
<!-- AJS&#45;&gt;SD -->
<g id="edge2" class="edge">
<title>AJS&#45;&gt;SD</title>
<path fill="none" stroke="#000000" d="M328.0606,-324.1686C307.4224,-333.7554 281.9252,-345.5992 260.1063,-355.7345"/>
<polygon fill="#000000" stroke="#000000" points="258.6002,-352.5749 251.0054,-359.962 261.5492,-358.9234 258.6002,-352.5749"/>
</g>
<!-- SE -->
<g id="node6" class="node">
<title>SE</title>
<polygon fill="#a2cd5a" stroke="#0000cd" points="516.8941,-540 264.3494,-540 217.4531,-504 469.9978,-504 516.8941,-540"/>
<text text-anchor="middle" x="367.1736" y="-517.8" font-family="Times,serif" font-size="14.00" fill="#0000cd">Evaluate Project Quality</text>
</g>
<!-- AJS&#45;&gt;SE -->
<g id="edge3" class="edge">
<title>AJS&#45;&gt;SE</title>
<path fill="none" stroke="#000000" d="M367.1736,-324.0445C367.1736,-361.6062 367.1736,-448.4459 367.1736,-493.5897"/>
<polygon fill="#000000" stroke="#000000" points="363.6737,-493.8549 367.1736,-503.8549 370.6737,-493.855 363.6737,-493.8549"/>
</g>
<!-- ASC -->
<g id="node5" class="node">
<title>ASC</title>
<path fill="transparent" stroke="#0000cd" d="M289.3467,-468C289.3467,-468 211.0005,-468 211.0005,-468 205.0005,-468 199.0005,-462 199.0005,-456 199.0005,-456 199.0005,-444 199.0005,-444 199.0005,-438 205.0005,-432 211.0005,-432 211.0005,-432 289.3467,-432 289.3467,-432 295.3467,-432 301.3467,-438 301.3467,-444 301.3467,-444 301.3467,-456 301.3467,-456 301.3467,-462 295.3467,-468 289.3467,-468"/>
<text text-anchor="middle" x="250.1736" y="-445.8" font-family="Times,serif" font-size="14.00" fill="#0000cd">Archivees Data</text>
</g>
<!-- SD&#45;&gt;ASC -->
<g id="edge4" class="edge">
<title>SD&#45;&gt;ASC</title>
<path fill="none" stroke="#000000" d="M221.7626,-396.1686C226.0053,-404.2075 231.0857,-413.8334 235.7696,-422.7082"/>
<polygon fill="#000000" stroke="#000000" points="232.6925,-424.3765 240.4555,-431.5867 238.8832,-421.1092 232.6925,-424.3765"/>
</g>
<!-- ASC&#45;&gt;SE -->
<g id="edge5" class="edge">
<title>ASC&#45;&gt;SE</title>
<path fill="none" stroke="#000000" d="M279.6976,-468.1686C294.6627,-477.3779 313.0122,-488.6699 329.0339,-498.5294"/>
<polygon fill="#000000" stroke="#000000" points="327.3081,-501.577 337.659,-503.8372 330.9768,-495.6153 327.3081,-501.577"/>
</g>
<!-- SE&#45;&gt;PV -->
<g id="edge6" class="edge">
<title>SE&#45;&gt;PV</title>
<path fill="none" stroke="#000000" d="M367.1736,-540.1686C367.1736,-547.869 367.1736,-557.0257 367.1736,-565.5834"/>
<polygon fill="#000000" stroke="#000000" points="363.6737,-565.5867 367.1736,-575.5867 370.6737,-565.5868 363.6737,-565.5867"/>
</g>
<!-- BM -->
<g id="node7" class="node">
<title>BM</title>
<path fill="#87ceeb" stroke="#0000cd" d="M619.484,-324C619.484,-324 512.8632,-324 512.8632,-324 506.8632,-324 500.8632,-318 500.8632,-312 500.8632,-312 500.8632,-300 500.8632,-300 500.8632,-294 506.8632,-288 512.8632,-288 512.8632,-288 619.484,-288 619.484,-288 625.484,-288 631.484,-294 631.484,-300 631.484,-300 631.484,-312 631.484,-312 631.484,-318 625.484,-324 619.484,-324"/>
<text text-anchor="middle" x="566.1736" y="-301.8" font-family="Times,serif" font-size="14.00" fill="#0000cd">Build Maven passed</text>
</g>
<!-- SM -->
<g id="node8" class="node">
<title>SM</title>
<polygon fill="#a2cd5a" stroke="#0000cd" points="712.8087,-396 465.4684,-396 419.5385,-360 666.8788,-360 712.8087,-396"/>
<text text-anchor="middle" x="566.1736" y="-373.8" font-family="Times,serif" font-size="14.00" fill="#0000cd">Evaluate Maven Project</text>
</g>
<!-- BM&#45;&gt;SM -->
<g id="edge7" class="edge">
<title>BM&#45;&gt;SM</title>
<path fill="none" stroke="#000000" d="M566.1736,-324.1686C566.1736,-331.869 566.1736,-341.0257 566.1736,-349.5834"/>
<polygon fill="#000000" stroke="#000000" points="562.6737,-349.5867 566.1736,-359.5867 569.6737,-349.5868 562.6737,-349.5867"/>
</g>
<!-- M -->
<g id="node9" class="node">
<title>M</title>
<path fill="transparent" stroke="#0000cd" d="M536.1384,-468C536.1384,-468 470.2088,-468 470.2088,-468 464.2088,-468 458.2088,-462 458.2088,-456 458.2088,-456 458.2088,-444 458.2088,-444 458.2088,-438 464.2088,-432 470.2088,-432 470.2088,-432 536.1384,-432 536.1384,-432 542.1384,-432 548.1384,-438 548.1384,-444 548.1384,-444 548.1384,-456 548.1384,-456 548.1384,-462 542.1384,-468 536.1384,-468"/>
<text text-anchor="middle" x="503.1736" y="-445.8" font-family="Times,serif" font-size="14.00" fill="#0000cd">Maven ready</text>
</g>
<!-- SM&#45;&gt;M -->
<g id="edge8" class="edge">
<title>SM&#45;&gt;M</title>
<path fill="none" stroke="#000000" d="M550.276,-396.1686C542.9458,-404.546 534.1076,-414.6469 526.0767,-423.8251"/>
<polygon fill="#000000" stroke="#000000" points="523.2363,-421.7562 519.2852,-431.5867 528.5043,-426.3657 523.2363,-421.7562"/>
</g>
<!-- M&#45;&gt;SE -->
<g id="edge9" class="edge">
<title>M&#45;&gt;SE</title>
<path fill="none" stroke="#000000" d="M468.8551,-468.1686C451.1377,-477.5484 429.3391,-489.0888 410.4752,-499.0756"/>
<polygon fill="#000000" stroke="#000000" points="408.6814,-496.065 401.4812,-503.8372 411.9567,-502.2515 408.6814,-496.065"/>
</g>
<!-- SJA -->
<g id="node10" class="node">
<title>SJA</title>
<polygon fill="#a2cd5a" stroke="#0000cd" points="511.4797,-252 268.0679,-252 222.8675,-216 466.2793,-216 511.4797,-252"/>
<text text-anchor="middle" x="367.1736" y="-229.8" font-family="Times,serif" font-size="14.00" fill="#0000cd">testCoverage Archivate</text>
</g>
<!-- SJA&#45;&gt;AJS -->
<g id="edge10" class="edge">
<title>SJA&#45;&gt;AJS</title>
<path fill="none" stroke="#000000" d="M367.1736,-252.1686C367.1736,-259.869 367.1736,-269.0257 367.1736,-277.5834"/>
<polygon fill="#000000" stroke="#000000" points="363.6737,-277.5867 367.1736,-287.5867 370.6737,-277.5868 363.6737,-277.5867"/>
</g>
<!-- JV -->
<g id="node11" class="node">
<title>JV</title>
<path fill="transparent" stroke="#0000cd" d="M431.2326,-180C431.2326,-180 303.1146,-180 303.1146,-180 297.1146,-180 291.1146,-174 291.1146,-168 291.1146,-168 291.1146,-156 291.1146,-156 291.1146,-150 297.1146,-144 303.1146,-144 303.1146,-144 431.2326,-144 431.2326,-144 437.2326,-144 443.2326,-150 443.2326,-156 443.2326,-156 443.2326,-168 443.2326,-168 443.2326,-174 437.2326,-180 431.2326,-180"/>
<text text-anchor="middle" x="367.1736" y="-157.8" font-family="Times,serif" font-size="14.00" fill="#0000cd">Test Coverage validated</text>
</g>
<!-- JV&#45;&gt;SJA -->
<g id="edge11" class="edge">
<title>JV&#45;&gt;SJA</title>
<path fill="none" stroke="#000000" d="M367.1736,-180.1686C367.1736,-187.869 367.1736,-197.0257 367.1736,-205.5834"/>
<polygon fill="#000000" stroke="#000000" points="363.6737,-205.5867 367.1736,-215.5867 370.6737,-205.5868 363.6737,-205.5867"/>
</g>
<!-- JA -->
<g id="node12" class="node">
<title>JA</title>
<path fill="#87ceeb" stroke="#0000cd" d="M598.8809,-180C598.8809,-180 473.4663,-180 473.4663,-180 467.4663,-180 461.4663,-174 461.4663,-168 461.4663,-168 461.4663,-156 461.4663,-156 461.4663,-150 467.4663,-144 473.4663,-144 473.4663,-144 598.8809,-144 598.8809,-144 604.8809,-144 610.8809,-150 610.8809,-156 610.8809,-156 610.8809,-168 610.8809,-168 610.8809,-174 604.8809,-180 598.8809,-180"/>
<text text-anchor="middle" x="536.1736" y="-157.8" font-family="Times,serif" font-size="14.00" fill="#0000cd">Jacoco report Archivate</text>
</g>
<!-- JA&#45;&gt;SJA -->
<g id="edge12" class="edge">
<title>JA&#45;&gt;SJA</title>
<path fill="none" stroke="#000000" d="M493.5278,-180.1686C470.8246,-189.841 442.7285,-201.8109 418.7994,-212.0056"/>
<polygon fill="#000000" stroke="#000000" points="417.3408,-208.8225 409.5128,-215.962 420.0845,-215.2624 417.3408,-208.8225"/>
</g>
<!-- SJ -->
<g id="node13" class="node">
<title>SJ</title>
<polygon fill="#a2cd5a" stroke="#0000cd" points="534.8203,-108 304.3282,-108 261.5269,-72 492.019,-72 534.8203,-108"/>
<text text-anchor="middle" x="398.1736" y="-85.8" font-family="Times,serif" font-size="14.00" fill="#0000cd">Validate testCoverage</text>
</g>
<!-- SJ&#45;&gt;JV -->
<g id="edge13" class="edge">
<title>SJ&#45;&gt;JV</title>
<path fill="none" stroke="#000000" d="M390.351,-108.1686C386.9627,-116.0383 382.9195,-125.4288 379.166,-134.1467"/>
<polygon fill="#000000" stroke="#000000" points="375.8415,-133.0178 375.1015,-143.5867 382.2709,-135.786 375.8415,-133.0178"/>
</g>
<!-- IA -->
<g id="node14" class="node">
<title>IA</title>
<path fill="#87ceeb" stroke="#0000cd" d="M102.5213,-324C102.5213,-324 11.8259,-324 11.8259,-324 5.8259,-324 -.1741,-318 -.1741,-312 -.1741,-312 -.1741,-300 -.1741,-300 -.1741,-294 5.8259,-288 11.8259,-288 11.8259,-288 102.5213,-288 102.5213,-288 108.5213,-288 114.5213,-294 114.5213,-300 114.5213,-300 114.5213,-312 114.5213,-312 114.5213,-318 108.5213,-324 102.5213,-324"/>
<text text-anchor="middle" x="57.1736" y="-301.8" font-family="Times,serif" font-size="14.00" fill="#0000cd">images Archivate</text>
</g>
<!-- IA&#45;&gt;SD -->
<g id="edge14" class="edge">
<title>IA&#45;&gt;SD</title>
<path fill="none" stroke="#000000" d="M96.2866,-324.1686C116.9248,-333.7554 142.422,-345.5992 164.2409,-355.7345"/>
<polygon fill="#000000" stroke="#000000" points="162.798,-358.9234 173.3418,-359.962 165.747,-352.5749 162.798,-358.9234"/>
</g>
<!-- RJ -->
<g id="node15" class="node">
<title>RJ</title>
<path fill="#87ceeb" stroke="#0000cd" d="M350.8649,-36C350.8649,-36 279.4823,-36 279.4823,-36 273.4823,-36 267.4823,-30 267.4823,-24 267.4823,-24 267.4823,-12 267.4823,-12 267.4823,-6 273.4823,0 279.4823,0 279.4823,0 350.8649,0 350.8649,0 356.8649,0 362.8649,-6 362.8649,-12 362.8649,-12 362.8649,-24 362.8649,-24 362.8649,-30 356.8649,-36 350.8649,-36"/>
<text text-anchor="middle" x="315.1736" y="-13.8" font-family="Times,serif" font-size="14.00" fill="#0000cd">Jacoco Report</text>
</g>
<!-- RJ&#45;&gt;SJA -->
<g id="edge16" class="edge">
<title>RJ&#45;&gt;SJA</title>
<path fill="none" stroke="#000000" d="M284.1975,-36.1224C271.8167,-45.1737 258.9154,-57.3419 252.1736,-72 245.4879,-86.5362 249.0357,-92.3107 252.1736,-108 258.9723,-141.9935 259.8458,-153.4812 282.1736,-180 292.4267,-192.1776 306.1394,-202.524 319.5537,-210.8013"/>
<polygon fill="#000000" stroke="#000000" points="317.8927,-213.8849 328.2862,-215.9403 321.443,-207.852 317.8927,-213.8849"/>
</g>
<!-- RJ&#45;&gt;SJ -->
<g id="edge15" class="edge">
<title>RJ&#45;&gt;SJ</title>
<path fill="none" stroke="#000000" d="M336.118,-36.1686C346.2427,-44.9515 358.5513,-55.6288 369.5284,-65.1511"/>
<polygon fill="#000000" stroke="#000000" points="367.3885,-67.9282 377.2359,-71.8372 371.9755,-62.6405 367.3885,-67.9282"/>
</g>
<!-- TM -->
<g id="node16" class="node">
<title>TM</title>
<path fill="#87ceeb" stroke="#0000cd" d="M760.9686,-324C760.9686,-324 661.3786,-324 661.3786,-324 655.3786,-324 649.3786,-318 649.3786,-312 649.3786,-312 649.3786,-300 649.3786,-300 649.3786,-294 655.3786,-288 661.3786,-288 661.3786,-288 760.9686,-288 760.9686,-288 766.9686,-288 772.9686,-294 772.9686,-300 772.9686,-300 772.9686,-312 772.9686,-312 772.9686,-318 766.9686,-324 760.9686,-324"/>
<text text-anchor="middle" x="711.1736" y="-301.8" font-family="Times,serif" font-size="14.00" fill="#0000cd">Test Maven passed</text>
</g>
<!-- TM&#45;&gt;SM -->
<g id="edge17" class="edge">
<title>TM&#45;&gt;SM</title>
<path fill="none" stroke="#000000" d="M674.584,-324.1686C655.4497,-333.6698 631.8507,-345.3879 611.5614,-355.4626"/>
<polygon fill="#000000" stroke="#000000" points="609.9001,-352.3797 602.5001,-359.962 613.0133,-358.6494 609.9001,-352.3797"/>
</g>
<!-- CA -->
<g id="node17" class="node">
<title>CA</title>
<path fill="#87ceeb" stroke="#0000cd" d="M221.7951,-324C221.7951,-324 144.5521,-324 144.5521,-324 138.5521,-324 132.5521,-318 132.5521,-312 132.5521,-312 132.5521,-300 132.5521,-300 132.5521,-294 138.5521,-288 144.5521,-288 144.5521,-288 221.7951,-288 221.7951,-288 227.7951,-288 233.7951,-294 233.7951,-300 233.7951,-300 233.7951,-312 233.7951,-312 233.7951,-318 227.7951,-324 221.7951,-324"/>
<text text-anchor="middle" x="183.1736" y="-301.8" font-family="Times,serif" font-size="14.00" fill="#0000cd">code Archivate</text>
</g>
<!-- CA&#45;&gt;SD -->
<g id="edge18" class="edge">
<title>CA&#45;&gt;SD</title>
<path fill="none" stroke="#000000" d="M190.4915,-324.1686C193.6612,-332.0383 197.4436,-341.4288 200.9549,-350.1467"/>
<polygon fill="#000000" stroke="#000000" points="197.7744,-351.6185 204.7571,-359.5867 204.2675,-349.0032 197.7744,-351.6185"/>
</g>
</g>
</svg>
